# xmcd
# 
# Track frame offsets:
#     150
#     27952
#     46257
#     62857
#     85035
#     110175
#     129000
#     143890
#     154165
#     176255
# 
# Disc length: 2659
# 
# Revision: 1
# Processed by: cddbd v1.5.2PL0 Copyright (c) Steve Scherf et al.
# Submitted via: fre:ac v1.0.31
# 
DISCID=7d0a610a
DTITLE=爆風スランプ - TENSION
DYEAR=1994
DGENRE=Rock
TTITLE0=愛のチャンピオン
TTITLE1=渋谷でGO!
TTITLE2=美しい手
TTITLE3=日本人になれ
TTITLE4=恋の終わりはいつも
TTITLE5=勝負は時の運だから
TTITLE6=世直しロックンロール
TTITLE7=ネムネムマンボ
TTITLE8=お婿サンバ
TTITLE9=天国レイン
EXTD=
EXTT0=
EXTT1=
EXTT2=
EXTT3=
EXTT4=
EXTT5=
EXTT6=
EXTT7=
EXTT8=
EXTT9=
PLAYORDER=
